name rise32.9588peak41.5061fall63.4684.mot
datacolumns 19
datarows 26
range 0.24833400000000 0.29000300000000
endheader
time	ground_force1_vx	ground_force1_vy	ground_force1_vz	ground_force1_px	ground_force1_py	ground_force1_pz	ground_force2_vx	ground_force2_vy	ground_force2_vz	ground_force2_px	ground_force2_py	ground_force2_pz	ground_torque1_x	ground_torque1_y	ground_torque1_z	ground_torque2_x	ground_torque2_y	ground_torque2_z	
0.24833400000000	-7.32224900000000	41.48029200000000	-7.12491900000000	0.29556500000000	0.00000000000000	0.10405100000000	-34.86438100000000	781.67052999999999	-48.32608300000000	0.12397200000000	0.00000000000000	-0.06131400000000	0.00000000000000	-3.77570100000000	0.00000000000000	0.00000000000000	-15.72999300000000	0.00000000000000	
0.24999600000000	-8.04172500000000	48.97515800000000	-8.00257300000000	0.30011900000000	0.00000000000000	0.10498600000000	-35.75340600000000	778.86568000000000	-47.84313900000000	0.12312800000000	0.00000000000000	-0.06121000000000	0.00000000000000	-4.31015700000000	0.00000000000000	0.00000000000000	-15.66466500000000	0.00000000000000	
0.25167000000000	-8.62446400000000	56.65963100000000	-8.79567200000000	0.30417900000000	0.00000000000000	0.10581800000000	-36.66918500000000	775.92563299999995	-47.33772700000000	0.12228100000000	0.00000000000000	-0.06110300000000	0.00000000000000	-4.81405900000000	0.00000000000000	0.00000000000000	-15.60138700000000	0.00000000000000	
0.25333100000000	-9.05003200000000	64.44275600000000	-9.48490700000000	0.30783000000000	0.00000000000000	0.10656500000000	-37.61028900000000	772.84679400000005	-46.80986400000000	0.12143400000000	0.00000000000000	-0.06099400000000	0.00000000000000	-5.27632700000000	0.00000000000000	0.00000000000000	-15.54004000000000	0.00000000000000	
0.25500400000000	-9.30598400000000	72.25359100000000	-10.05734600000000	0.31114300000000	0.00000000000000	0.10724200000000	-38.57513300000000	769.62552800000003	-46.25959700000000	0.12058400000000	0.00000000000000	-0.06088200000000	0.00000000000000	-5.68904000000000	0.00000000000000	0.00000000000000	-15.48048500000000	0.00000000000000	
0.25666400000000	-9.38778200000000	80.04370600000000	-10.50652300000000	0.31417000000000	0.00000000000000	0.10786100000000	-39.56197400000000	766.25816899999995	-45.68700300000000	0.11973500000000	0.00000000000000	-0.06076900000000	0.00000000000000	-6.04757300000000	0.00000000000000	0.00000000000000	-15.42256100000000	0.00000000000000	
0.25833700000000	-9.29807400000000	87.78739899999999	-10.83198300000000	0.31695400000000	0.00000000000000	0.10842900000000	-40.56892200000000	762.74103800000000	-45.09219600000000	0.11888500000000	0.00000000000000	-0.06065200000000	0.00000000000000	-6.35045000000000	0.00000000000000	0.00000000000000	-15.36608600000000	0.00000000000000	
0.25999600000000	-9.04552000000000	95.48000900000000	-11.03841200000000	0.31953100000000	0.00000000000000	0.10895400000000	-41.59393400000000	759.07045800000003	-44.47532000000000	0.11803500000000	0.00000000000000	-0.06053300000000	0.00000000000000	-6.59895300000000	0.00000000000000	0.00000000000000	-15.31085800000000	0.00000000000000	
0.26166300000000	-8.64332300000000	103.13476799999999	-11.13449900000000	0.32192900000000	0.00000000000000	0.10944200000000	-42.63482600000000	755.24276699999996	-43.83656000000000	0.11718600000000	0.00000000000000	-0.06041200000000	0.00000000000000	-6.79657900000000	0.00000000000000	0.00000000000000	-15.25665600000000	0.00000000000000	
0.26333500000000	-8.10765100000000	110.77873300000000	-11.13166400000000	0.32417100000000	0.00000000000000	0.10989700000000	-43.68927500000000	751.25434099999995	-43.17613700000000	0.11634000000000	0.00000000000000	-0.06028800000000	0.00000000000000	-6.94840400000000	0.00000000000000	0.00000000000000	-15.20324100000000	0.00000000000000	
0.26499800000000	-7.45609300000000	118.44828099999999	-11.04279200000000	0.32627800000000	0.00000000000000	0.11032400000000	-44.75482600000000	747.10160800000006	-42.49431500000000	0.11549600000000	0.00000000000000	-0.06016200000000	0.00000000000000	-7.06043000000000	0.00000000000000	0.00000000000000	-15.15035300000000	0.00000000000000	
0.26666400000000	-6.70627100000000	126.18461300000000	-10.88105800000000	0.32826400000000	0.00000000000000	0.11072600000000	-45.82889700000000	742.78107199999999	-41.79139500000000	0.11465500000000	0.00000000000000	-0.06003400000000	0.00000000000000	-7.13897000000000	0.00000000000000	0.00000000000000	-15.09771800000000	0.00000000000000	
0.26833500000000	-5.87468700000000	134.02962900000000	-10.65894500000000	0.33014400000000	0.00000000000000	0.11110600000000	-46.90878800000000	738.28932699999996	-41.06772700000000	0.11381800000000	0.00000000000000	-0.05990300000000	0.00000000000000	-7.19010900000000	0.00000000000000	0.00000000000000	-15.04504600000000	0.00000000000000	
0.27000300000000	-4.97586000000000	142.02242400000000	-10.38747200000000	0.33193000000000	0.00000000000000	0.11146600000000	-47.99168700000000	733.62308399999995	-40.32370000000000	0.11298600000000	0.00000000000000	-0.05976900000000	0.00000000000000	-7.21928200000000	0.00000000000000	0.00000000000000	-14.99203300000000	0.00000000000000	
0.27166800000000	-4.02177100000000	150.19658000000001	-10.07567800000000	0.33363100000000	0.00000000000000	0.11180800000000	-49.07468100000000	728.77918899999997	-39.55975200000000	0.11216100000000	0.00000000000000	-0.05963300000000	0.00000000000000	-7.23096800000000	0.00000000000000	0.00000000000000	-14.93836000000000	0.00000000000000	
0.27333600000000	-3.02159700000000	158.57830200000001	-9.73034200000000	0.33525700000000	0.00000000000000	0.11213400000000	-50.15476400000000	723.75464599999998	-38.77636600000000	0.11134200000000	0.00000000000000	-0.05949400000000	0.00000000000000	-7.22851800000000	0.00000000000000	0.00000000000000	-14.88369800000000	0.00000000000000	
0.27500100000000	-1.98170800000000	167.18541099999999	-9.35592800000000	0.33681300000000	0.00000000000000	0.11244500000000	-51.22884500000000	718.54664100000002	-37.97407000000000	0.11053100000000	0.00000000000000	-0.05935300000000	0.00000000000000	-7.21409100000000	0.00000000000000	0.00000000000000	-14.82770500000000	0.00000000000000	
0.27666500000000	-0.90588100000000	176.02708999999999	-8.95471400000000	0.33830600000000	0.00000000000000	0.11274200000000	-52.29376100000000	713.15256199999999	-37.15344300000000	0.10972800000000	0.00000000000000	-0.05920900000000	0.00000000000000	-7.18869500000000	0.00000000000000	0.00000000000000	-14.77003300000000	0.00000000000000	
0.27833600000000	0.20433000000000	185.10428300000001	-8.52705700000000	0.33974200000000	0.00000000000000	0.11302800000000	-53.34628600000000	707.57002100000000	-36.31511000000000	0.10893600000000	0.00000000000000	-0.05906200000000	0.00000000000000	-7.15231200000000	0.00000000000000	0.00000000000000	-14.71032300000000	0.00000000000000	
0.27999900000000	1.34912300000000	194.41058400000000	-8.07176100000000	0.34112400000000	0.00000000000000	0.11330200000000	-54.38314200000000	701.79687600000000	-35.45974500000000	0.10815400000000	0.00000000000000	-0.05891300000000	0.00000000000000	-7.10406900000000	0.00000000000000	0.00000000000000	-14.64821400000000	0.00000000000000	
0.28166400000000	2.52992300000000	203.93347199999999	-7.58649400000000	0.34245700000000	0.00000000000000	0.11356600000000	-55.40100900000000	695.83125099999995	-34.58806900000000	0.10738500000000	0.00000000000000	-0.05876000000000	0.00000000000000	-7.04245000000000	0.00000000000000	0.00000000000000	-14.58333600000000	0.00000000000000	
0.28333000000000	3.74885900000000	213.65572100000000	-7.06821500000000	0.34374300000000	0.00000000000000	0.11382000000000	-56.39654100000000	689.67155400000001	-33.70085300000000	0.10662800000000	0.00000000000000	-0.05860500000000	0.00000000000000	-6.96551600000000	0.00000000000000	0.00000000000000	-14.51532100000000	0.00000000000000	
0.28500000000000	5.00828700000000	223.55686399999999	-6.51357900000000	0.34498600000000	0.00000000000000	0.11406600000000	-57.36637400000000	683.31649200000004	-32.79891600000000	0.10588500000000	0.00000000000000	-0.05844700000000	0.00000000000000	-6.87112000000000	0.00000000000000	0.00000000000000	-14.44379700000000	0.00000000000000	
0.28667000000000	6.31036800000000	233.61458300000001	-5.91929200000000	0.34618600000000	0.00000000000000	0.11430300000000	-58.30714200000000	676.76508600000000	-31.88312600000000	0.10515700000000	0.00000000000000	-0.05828600000000	0.00000000000000	-6.75709600000000	0.00000000000000	0.00000000000000	-14.36839500000000	0.00000000000000	
0.28832900000000	7.65674000000000	243.80594400000001	-5.28240200000000	0.34734700000000	0.00000000000000	0.11453200000000	-59.21548700000000	670.01668600000005	-30.95439700000000	0.10444600000000	0.00000000000000	-0.05812200000000	0.00000000000000	-6.62142400000000	0.00000000000000	0.00000000000000	-14.28874700000000	0.00000000000000	
0.29000300000000	9.04828300000000	254.10841500000001	-4.60051900000000	0.34846900000000	0.00000000000000	0.11475400000000	-60.08807300000000	663.07097599999997	-30.01369400000000	0.10375100000000	0.00000000000000	-0.05795500000000	0.00000000000000	-6.46234800000000	0.00000000000000	0.00000000000000	-14.20449100000000	0.00000000000000	
